FILE "Alien Breed 3D (1995)(Ocean - Team 17)[cp code].bin" BINARY
REM SESSION 01
   TRACK 01 MODE1/2352
      INDEX 01 00:00:00
   TRACK 02 AUDIO
      INDEX 01 00:20:35
   TRACK 03 AUDIO
      INDEX 01 04:11:62
   TRACK 04 AUDIO
      INDEX 01 09:09:06
   TRACK 05 AUDIO
      INDEX 01 13:14:14
   TRACK 06 AUDIO
      INDEX 01 19:02:44
